<svg width="812" height="176" viewBox="0 0 812 176" fill="none" xmlns="http://www.w3.org/2000/svg">
<path d="M161 64.8C155.4 73.8667 149.067 81.4667 142 87.6C134.933 93.7333 127.6 98.6 120 102.2C112.533 105.667 105 107.933 97.4 109C89.8 110.067 82.7333 110 76.2 108.8C84.2 117.467 92.3333 125 100.6 131.4C108.867 137.667 116.6 142.667 123.8 146.4C131 150.267 137.333 152.733 142.8 153.8C148.4 155 152.467 154.8 155 153.2C150.333 159.333 144.333 162.733 137 163.4C129.8 164.2 121.867 162.6 113.2 158.6C104.667 154.6 95.7333 148.4 86.4 140C77.0667 131.6 68 121.333 59.2 109.2C53.8667 117.2 48.5333 124.6 43.2 131.4C38 138.2 32.8667 143.867 27.8 148.4C22.8667 152.933 18.1333 156 13.6 157.6C8.93333 159.2 4.6 158.867 0.599999 156.6C3.13333 156.333 6.06667 154.533 9.4 151.2C12.6 147.867 16.1333 143.467 20 138C23.8667 132.533 27.9333 126.267 32.2 119.2C36.6 112.133 41.1333 104.667 45.8 96.8C50.4667 88.9333 55.2 81 60 73C64.8 64.8667 69.6 57.0667 74.4 49.6C79.3333 42.1333 84.2 35.2667 89 29C93.8 22.7333 98.4667 17.5333 103 13.4C94.0667 14.8667 85.8 17.6 78.2 21.6C70.6 25.4667 64 29.8 58.4 34.6C52.9333 39.2667 48.6667 43.9333 45.6 48.6C42.5333 53.1333 41.0667 56.8 41.2 59.6C38.4 56 37.4667 51.8 38.4 47C39.3333 42.2 41.6667 37.3333 45.4 32.4C49.2667 27.4667 54.3333 22.8 60.6 18.4C67 13.8667 74.1333 10.1333 82 7.19999C89.8667 4.13333 98.3333 2.13333 107.4 1.19999C116.6 0.133327 125.933 0.599996 135.4 2.59999C142.467 4.2 148.667 6.8 154 10.4C159.467 14 163.533 18.4667 166.2 23.8C169 29.1333 170.067 35.2667 169.4 42.2C168.867 49.1333 166.067 56.6667 161 64.8ZM67.6 96C73.0667 98.1333 79.1333 99.0667 85.8 98.8C92.6 98.4 99.4667 96.8 106.4 94C113.467 91.2 120.267 87.1333 126.8 81.8C133.467 76.3333 139.333 69.4667 144.4 61.2C148.533 54.6667 150.933 48.8 151.6 43.6C152.4 38.2667 151.933 33.6667 150.2 29.8C148.467 25.8 145.733 22.5333 142 20C138.267 17.3333 133.933 15.3333 129 14C127.8 13.7333 126.6 13.5333 125.4 13.4C124.2 13.2667 123 13.0667 121.8 12.8C118.333 16.4 114.533 21.2667 110.4 27.4C106.267 33.4 101.867 40.1333 97.2 47.6C92.6667 54.9333 87.8667 62.8 82.8 71.2C77.8667 79.4667 72.8 87.7333 67.6 96ZM238.138 105.8C238.671 105 239.338 104.6 240.138 104.6C240.938 104.467 241.604 104.6 242.138 105C242.804 105.267 243.204 105.733 243.338 106.4C243.604 107.067 243.471 107.8 242.938 108.6C242.538 109.267 241.604 110.533 240.138 112.4C238.671 114.267 237.404 115.933 236.338 117.4C231.404 123.267 225.871 127.533 219.738 130.2C213.738 132.733 208.004 133.867 202.538 133.6C197.604 137.733 192.271 140.533 186.538 142C180.804 143.467 175.071 142.8 169.338 140C164.938 137.867 161.738 134.933 159.737 131.2C157.737 127.467 156.737 123.333 156.737 118.8C156.737 114.267 157.604 109.533 159.337 104.6C160.938 99.5333 163.204 94.7333 166.138 90.2C169.071 85.5333 172.471 81.2667 176.338 77.4C180.338 73.4 184.471 70.2 188.738 67.8C193.138 65.4 197.604 64 202.138 63.6C206.804 63.0667 211.271 63.8667 215.538 66C217.404 66.9333 218.738 68.1333 219.538 69.6C220.338 71.0667 220.738 72.6667 220.738 74.4C220.738 76 220.404 77.6667 219.738 79.4C219.071 81 218.138 82.4667 216.938 83.8C219.738 85.1333 221.804 87.3333 223.138 90.4C224.604 93.3333 224.871 96.7333 223.938 100.6C222.604 105 220.804 109.333 218.538 113.6C216.271 117.867 213.604 121.867 210.538 125.6C214.138 125.067 217.871 123.8 221.738 121.8C225.738 119.667 229.271 116.667 232.338 112.8C234.471 110.533 236.404 108.2 238.138 105.8ZM190.338 130.4C188.071 129.067 186.138 127.267 184.538 125C183.071 122.733 182.204 120.133 181.938 117.2C181.671 114.133 182.071 110.8 183.138 107.2C184.204 103.6 186.138 99.7333 188.938 95.6C191.604 91.7333 194.404 88.9333 197.338 87.2C200.271 85.3333 203.138 84 205.938 83.2C205.804 83.0667 205.671 83 205.538 83C203.004 81.1333 200.071 80.8667 196.738 82.2C193.404 83.5333 190.071 85.8667 186.738 89.2C183.404 92.4 180.271 96.2667 177.338 100.8C174.404 105.333 172.138 109.867 170.538 114.4C168.938 118.8 168.204 122.933 168.338 126.8C168.471 130.533 169.871 133.2 172.538 134.8C177.871 137.733 183.804 136.267 190.338 130.4ZM208.338 103C208.738 101.667 208.738 100.6 208.338 99.8C207.938 99 207.338 98.5333 206.538 98.4C205.738 98.2667 204.804 98.4 203.738 98.8C202.804 99.2 201.871 99.9333 200.938 101C197.204 105.267 195.271 109.467 195.138 113.6C195.004 117.6 195.871 120.6 197.738 122.6C200.004 119.533 202.071 116.333 203.938 113C205.804 109.533 207.271 106.2 208.338 103ZM319.667 32.2C326.601 32.3333 331.601 33.2667 334.667 35C337.734 36.7333 339.601 38.6667 340.267 40.8C341.067 42.8 341.001 44.8 340.067 46.8C339.267 48.8 338.334 50.2 337.267 51C337.667 49.5333 336.801 48.4667 334.667 47.8C332.534 47 329.534 46.4667 325.667 46.2C321.934 45.9333 317.467 45.8667 312.267 46C307.201 46.1333 301.801 46.2667 296.067 46.4C293.401 49.8667 290.801 53.2667 288.267 56.6C285.734 59.9333 283.401 63.0667 281.267 66C279.134 68.8 277.267 71.4 275.667 73.8C274.067 76.0667 272.801 77.8 271.867 79C270.534 80.8667 268.467 83.8 265.667 87.8C263.001 91.6667 260.134 95.8667 257.067 100.4C254.001 104.933 251.001 109.467 248.067 114C245.134 118.533 242.867 122.333 241.267 125.4C240.201 127.533 240.001 129.067 240.667 130C241.334 130.933 242.534 131.267 244.267 131C246.001 130.733 248.067 129.867 250.467 128.4C252.867 126.933 255.334 124.8 257.867 122C260.001 119.6 262.267 117 264.667 114.2C267.067 111.267 269.267 108.467 271.267 105.8C271.801 105 272.467 104.6 273.267 104.6C274.201 104.467 274.934 104.6 275.467 105C276.134 105.267 276.534 105.733 276.667 106.4C276.934 107.067 276.801 107.8 276.267 108.6C275.734 109.4 274.867 110.6 273.667 112.2C272.467 113.667 271.067 115.333 269.467 117.2C268.001 119.067 266.401 121 264.667 123C262.934 124.867 261.401 126.6 260.067 128.2C255.267 133.667 250.201 137.4 244.867 139.4C239.667 141.4 235.267 141.733 231.667 140.4C228.067 139.067 225.934 136.267 225.267 132C224.467 127.6 226.134 121.8 230.267 114.6C230.534 114.067 231.467 112.6 233.067 110.2C234.534 107.8 236.334 105.067 238.467 102C240.601 98.8 242.734 95.6 244.867 92.4C247.134 89.0667 249.001 86.2667 250.467 84C251.934 81.7333 253.667 79.0667 255.667 76C257.801 72.9333 260.001 69.7333 262.267 66.4C264.534 63.0667 266.801 59.7333 269.067 56.4C271.334 52.9333 273.467 49.7333 275.467 46.8C268.667 47.0667 262.867 47.0667 258.067 46.8C253.267 46.4 250.201 45.5333 248.867 44.2C247.267 42.2 246.667 38.8667 247.067 34.2C250.801 35.5333 255.934 36.1333 262.467 36C269.134 35.8667 276.201 35.4667 283.667 34.8C285.001 32.8 286.201 31 287.267 29.4C288.467 27.6667 289.534 26.0667 290.467 24.6C291.001 25.2667 292.134 24.9333 293.867 23.6C295.734 22.2667 298.134 20.8 301.067 19.2C304.001 17.6 307.401 16.2667 311.267 15.2C315.267 14 319.667 13.9333 324.467 15C322.601 15.8 320.134 17.8667 317.067 21.2C314.001 24.4 310.601 28.2667 306.867 32.8C309.934 32.5333 312.267 32.3333 313.867 32.2C315.601 32.0667 317.534 32.0667 319.667 32.2ZM343.87 105.8C344.404 105 345.07 104.6 345.87 104.6C346.804 104.467 347.537 104.6 348.07 105C348.737 105.267 349.137 105.733 349.27 106.4C349.537 107.067 349.404 107.8 348.87 108.6C348.337 109.4 347.47 110.6 346.27 112.2C345.07 113.667 343.67 115.333 342.07 117.2C340.604 119.067 339.004 121 337.27 123C335.67 124.867 334.137 126.6 332.67 128.2C327.87 133.133 323.337 136.533 319.07 138.4C314.937 140.267 311.27 141.133 308.07 141C305.004 140.733 302.537 139.733 300.67 138C298.804 136.133 297.804 134 297.67 131.6C294.87 134.933 292.07 137.6 289.27 139.6C286.604 141.467 284.07 142.8 281.67 143.6C279.27 144.4 277.07 144.733 275.07 144.6C273.07 144.6 271.404 144.333 270.07 143.8C268.07 143.133 266.204 141.667 264.47 139.4C262.737 137.133 261.937 133.867 262.07 129.6C262.07 125.333 263.404 120 266.07 113.6C268.604 107.067 273.27 99.2 280.07 90C285.937 81.8667 291.537 75.8 296.87 71.8C302.204 67.8 307.004 65.2667 311.27 64.2C315.67 63.1333 319.404 63.2 322.47 64.4C325.537 65.6 327.87 67.4667 329.47 70C331.07 72.4 331.804 75.2 331.67 78.4C331.537 81.4667 330.404 84.2667 328.27 86.8C328.404 85.0667 327.537 83.5333 325.67 82.2C323.804 80.8667 321.204 80.4667 317.87 81C314.537 81.4 310.604 83.0667 306.07 86C301.537 88.9333 296.67 93.8667 291.47 100.8C289.204 103.6 286.804 106.933 284.27 110.8C281.87 114.667 279.804 118.4 278.07 122C276.337 125.6 275.27 128.8 274.87 131.6C274.47 134.267 275.337 135.867 277.47 136.4C281.07 137.467 285.07 136 289.47 132C294.004 127.867 298.337 121.8 302.47 113.8C304.337 110.2 306.804 106.267 309.87 102C312.937 97.7333 316.67 93.0667 321.07 88C322.537 86.2667 324.204 85.8667 326.07 86.8C328.07 87.6 329.804 88.9333 331.27 90.8C332.87 92.6667 334.004 94.6 334.67 96.6C335.47 98.4667 335.404 99.5333 334.47 99.8C334.337 99.4 334.004 99.0667 333.47 98.8C333.07 98.4 332.47 98.3333 331.67 98.6C330.87 98.7333 329.87 99.3333 328.67 100.4C327.604 101.467 326.27 103.2 324.67 105.6C324.004 106.533 322.804 108.333 321.07 111C319.47 113.667 317.737 116.6 315.87 119.8C314.004 123.133 313.137 125.8 313.27 127.8C313.537 129.667 314.404 130.733 315.87 131C317.47 131.267 319.537 130.667 322.07 129.2C324.737 127.6 327.67 125 330.87 121.4C333.137 118.867 335.337 116.333 337.47 113.8C339.737 111.133 341.87 108.467 343.87 105.8ZM524.039 5.39999C530.572 7.79999 536.172 11.3333 540.839 16C545.506 20.6667 548.572 26.4 550.039 33.2C551.639 39.8667 551.439 47.6 549.439 56.4C547.439 65.0667 543.172 74.6667 536.639 85.2C528.772 97.4667 520.306 107.533 511.239 115.4C502.172 123.133 493.039 129 483.839 133C474.639 137 465.639 139.333 456.839 140C448.039 140.667 439.972 140 432.639 138C429.306 141.867 425.972 145.2 422.639 148C419.439 150.933 416.372 153.2 413.439 154.8C410.372 156.533 407.439 157.467 404.639 157.6C401.706 157.867 398.972 157.267 396.439 155.8C399.239 155.533 402.572 153.267 406.439 149C410.306 144.733 414.572 139.133 419.239 132.2C412.039 127.933 406.972 122.333 404.039 115.4C400.972 108.467 401.106 100.867 404.439 92.6C403.372 99.4 404.706 105.667 408.439 111.4C412.039 117 417.306 121.467 424.239 124.8C427.172 120.133 430.239 115.133 433.439 109.8C436.639 104.467 439.906 99 443.239 93.4C435.239 90.7333 428.772 87.2 423.839 82.8C418.906 78.2667 415.439 73.3333 413.439 68C411.439 62.5333 410.839 56.8667 411.639 51C412.439 45 414.439 39.2 417.639 33.6C420.972 28 425.506 22.8667 431.239 18.2C437.106 13.4 443.972 9.46666 451.839 6.39999C459.839 3.33333 468.839 1.39999 478.839 0.599996C488.839 -0.333342 499.772 0.266659 511.639 2.4C514.572 1.06666 517.372 0.466664 520.039 0.599996C522.706 0.733327 525.172 1.73333 527.439 3.59999C526.239 4.13333 525.106 4.73333 524.039 5.39999ZM497.639 13C484.972 12.3333 473.906 13.2667 464.439 15.8C455.106 18.2 447.372 21.6 441.239 26C435.239 30.4 430.839 35.4 428.039 41C425.372 46.4667 424.306 52 424.839 57.6C425.372 63.2 427.506 68.5333 431.239 73.6C435.106 78.5333 440.639 82.5333 447.839 85.6C451.972 78.6667 456.106 71.7333 460.239 64.8C464.506 57.8667 468.706 51.2667 472.839 45C477.106 38.6 481.306 32.6667 485.439 27.2C489.572 21.7333 493.639 17 497.639 13ZM519.639 82.2C525.639 72.7333 529.772 64.2667 532.039 56.8C534.439 49.3333 535.239 42.8667 534.439 37.4C533.639 31.9333 531.439 27.4667 527.839 24C524.372 20.4 519.772 17.6667 514.039 15.8C509.239 21.9333 503.906 29.7333 498.039 39.2C492.172 48.5333 486.039 58.4667 479.639 69C473.239 79.5333 466.639 90.1333 459.839 100.8C453.039 111.333 446.372 120.8 439.839 129.2C445.839 130 452.172 129.8 458.839 128.6C465.639 127.4 472.506 125 479.439 121.4C486.372 117.667 493.239 112.6 500.039 106.2C506.839 99.8 513.372 91.8 519.639 82.2ZM560.698 71C560.698 71.8 561.432 72.2 562.898 72.2C564.498 72.0667 566.365 71.7333 568.498 71.2C570.632 70.6667 572.832 70.0667 575.098 69.4C577.498 68.7333 579.565 68.2667 581.298 68C583.165 67.6 584.432 67.6 585.098 68C585.898 68.2667 585.832 69.1333 584.898 70.6C584.498 71.2667 583.365 72.9333 581.498 75.6C579.765 78.2667 577.632 81.4667 575.098 85.2C572.698 88.9333 570.098 92.9333 567.298 97.2C564.498 101.467 561.832 105.533 559.298 109.4C556.765 113.267 554.565 116.667 552.698 119.6C550.832 122.533 549.632 124.467 549.098 125.4C547.898 127.533 547.632 129.133 548.298 130.2C548.965 131.133 550.165 131.467 551.898 131.2C553.632 130.933 555.765 130.067 558.298 128.6C560.832 127 563.298 124.8 565.698 122C567.965 119.6 570.232 117 572.498 114.2C574.898 111.267 577.165 108.467 579.298 105.8C579.832 105 580.498 104.6 581.298 104.6C582.098 104.467 582.765 104.6 583.298 105C583.965 105.267 584.365 105.733 584.498 106.4C584.765 107.067 584.632 107.8 584.098 108.6C583.698 109.4 582.898 110.6 581.698 112.2C580.498 113.667 579.098 115.333 577.498 117.2C575.898 119.067 574.232 121 572.498 123C570.898 124.867 569.365 126.6 567.898 128.2C564.698 131.933 561.298 134.867 557.698 137C554.098 139 550.698 140.267 547.498 140.8C544.298 141.333 541.498 141.2 539.098 140.4C536.565 139.467 534.765 137.867 533.698 135.6C532.498 133.333 532.232 130.4 532.898 126.8C533.432 123.2 535.232 119 538.298 114.2C539.365 112.6 540.432 110.933 541.498 109.2C542.565 107.467 543.498 105.933 544.298 104.6C546.032 101.8 547.832 99 549.698 96.2C551.565 93.4 553.298 90.8 554.898 88.4C556.498 85.8667 557.965 83.5333 559.298 81.4C560.765 79.2667 561.898 77.5333 562.698 76.2C562.032 76.2 561.232 75.6667 560.298 74.6C559.498 73.5333 559.632 72.3333 560.698 71ZM578.298 53C580.832 52.3333 582.898 52.3333 584.498 53C586.232 53.6667 587.432 54.6667 588.098 56C588.898 57.3333 589.165 58.8667 588.898 60.6C588.632 62.2 587.832 63.6667 586.498 65C584.898 63.8 582.898 63.5333 580.498 64.2C578.232 64.8667 575.898 65.6 573.498 66.4C571.232 67.2 569.165 67.6667 567.298 67.8C565.432 67.9333 564.165 66.8 563.498 64.4C564.698 64.5333 565.765 64.1333 566.698 63.2C567.765 62.1333 568.832 60.9333 569.898 59.6C571.098 58.2667 572.298 56.9333 573.498 55.6C574.832 54.2667 576.432 53.4 578.298 53ZM656.478 105.8C657.011 105 657.678 104.6 658.478 104.6C659.278 104.467 659.945 104.6 660.478 105C661.145 105.267 661.611 105.733 661.878 106.4C662.145 107.067 662.011 107.8 661.478 108.6C660.945 109.4 660.078 110.6 658.878 112.2C657.678 113.667 656.278 115.333 654.678 117.2C653.078 119.067 651.411 121 649.678 123C648.078 124.867 646.545 126.6 645.078 128.2C639.611 134.467 634.278 138.467 629.078 140.2C624.011 141.8 620.211 141.4 617.678 139C616.211 141.4 614.678 143.8 613.078 146.2C611.611 148.6 610.211 150.8 608.878 152.8C607.545 154.8 606.411 156.533 605.478 158C604.545 159.467 603.878 160.467 603.478 161C600.411 165.533 597.078 168.867 593.478 171C589.878 173.267 586.411 174.6 583.078 175C579.878 175.4 577.011 175 574.478 173.8C571.811 172.733 569.878 171.133 568.678 169C567.345 166.867 566.878 164.333 567.278 161.4C567.678 158.6 569.278 155.733 572.078 152.8C570.878 155.467 570.745 157.8 571.678 159.8C572.611 161.933 574.145 163.267 576.278 163.8C578.278 164.467 580.745 164 583.678 162.4C586.611 160.933 589.478 157.867 592.278 153.2C592.945 152.133 593.945 150.467 595.278 148.2C596.745 145.933 598.411 143.267 600.278 140.2C602.278 137.133 604.411 133.733 606.678 130C609.078 126.267 611.478 122.467 613.878 118.6C612.145 119.667 610.078 121 607.678 122.6C605.278 124.067 603.478 125.333 602.278 126.4C601.611 126.4 600.611 126.2 599.278 125.8C598.078 125.267 596.878 124.667 595.678 124C594.611 123.2 593.811 122.267 593.278 121.2C592.745 120.133 592.878 118.933 593.678 117.6C596.611 112.533 599.878 107.6 603.478 102.8C607.211 98 611.011 93.4 614.878 89C609.278 89.4 604.678 88.9333 601.078 87.6C597.878 92 594.678 96.2667 591.478 100.4C588.411 104.4 585.811 107.8 583.678 110.6C583.011 111.4 582.278 111.867 581.478 112C580.811 112 580.145 111.8 579.478 111.4C578.811 111 578.345 110.533 578.078 110C577.811 109.333 577.878 108.667 578.278 108C581.478 103.733 584.411 99.8667 587.078 96.4C589.878 92.9333 592.678 89 595.478 84.6C593.211 82.7333 591.811 80.4667 591.278 77.8C590.878 75 591.478 71.9333 593.078 68.6C595.078 64.4667 597.611 61.6667 600.678 60.2C603.745 58.7333 606.411 58.4 608.678 59.2C611.078 60 612.545 61.8 613.078 64.6C613.745 67.4 612.678 70.8667 609.878 75C609.745 75.2667 609.611 75.4667 609.478 75.6C609.478 75.6 609.411 75.7333 609.278 76C611.411 75.6 613.745 75.0667 616.278 74.4C618.811 73.6 621.345 72.6667 623.878 71.6C626.411 70.4 628.878 69.2 631.278 68C633.678 66.6667 635.811 65.2667 637.678 63.8C638.478 63.2667 639.545 63.3333 640.878 64C642.211 64.6667 643.545 65.5333 644.878 66.6C646.211 67.6667 647.411 68.7333 648.478 69.8C649.545 70.8667 650.078 71.5333 650.078 71.8C650.078 71.9333 649.145 72.7333 647.278 74.2C645.545 75.6667 643.278 77.6 640.478 80C637.678 82.4 634.545 85.1333 631.078 88.2C627.745 91.2667 624.411 94.3333 621.078 97.4C617.745 100.467 614.678 103.533 611.878 106.6C609.078 109.533 606.945 112.133 605.478 114.4C607.345 112.933 609.411 111.267 611.678 109.4C614.078 107.533 616.411 105.8 618.678 104.2C621.078 102.467 623.278 101.067 625.278 100C627.411 98.8 629.078 98.0667 630.278 97.8C630.411 98.0667 630.878 98.6667 631.678 99.6C632.478 100.533 633.278 101.533 634.078 102.6C635.011 103.667 635.811 104.667 636.478 105.6C637.278 106.533 637.811 107.133 638.078 107.4C637.811 107.667 637.211 108.4 636.278 109.6C635.478 110.8 634.545 112.267 633.478 114C632.411 115.733 631.211 117.667 629.878 119.8C628.545 121.933 627.211 124 625.878 126C624.811 127.867 624.611 129.267 625.278 130.2C626.078 131 627.345 131.267 629.078 131C630.945 130.733 633.078 129.867 635.478 128.4C638.011 126.933 640.478 124.8 642.878 122C645.145 119.6 647.411 117 649.678 114.2C652.078 111.267 654.345 108.467 656.478 105.8ZM602.078 72.6C603.011 70.8667 603.545 69.6 603.678 68.8C603.811 67.8667 603.678 67.4 603.278 67.4C603.011 67.2667 602.611 67.6 602.078 68.4C601.545 69.0667 601.011 70.0667 600.478 71.4C599.945 73.1333 600.078 74.4 600.878 75.2C601.145 74.8 601.345 74.4 601.478 74C601.611 73.4667 601.811 73 602.078 72.6ZM733.627 105.8C734.16 105 734.827 104.6 735.627 104.6C736.427 104.467 737.093 104.6 737.627 105C738.293 105.267 738.76 105.733 739.027 106.4C739.293 107.067 739.16 107.8 738.627 108.6C738.093 109.4 737.227 110.6 736.027 112.2C734.827 113.667 733.427 115.333 731.827 117.2C730.227 119.067 728.56 121 726.827 123C725.227 124.867 723.693 126.6 722.227 128.2C716.76 134.467 711.427 138.467 706.227 140.2C701.16 141.8 697.36 141.4 694.827 139C693.36 141.4 691.827 143.8 690.227 146.2C688.76 148.6 687.36 150.8 686.027 152.8C684.693 154.8 683.56 156.533 682.627 158C681.693 159.467 681.027 160.467 680.627 161C677.56 165.533 674.227 168.867 670.627 171C667.027 173.267 663.56 174.6 660.227 175C657.027 175.4 654.16 175 651.627 173.8C648.96 172.733 647.027 171.133 645.827 169C644.493 166.867 644.027 164.333 644.427 161.4C644.827 158.6 646.427 155.733 649.227 152.8C648.027 155.467 647.893 157.8 648.827 159.8C649.76 161.933 651.293 163.267 653.427 163.8C655.427 164.467 657.893 164 660.827 162.4C663.76 160.933 666.627 157.867 669.427 153.2C670.093 152.133 671.093 150.467 672.427 148.2C673.893 145.933 675.56 143.267 677.427 140.2C679.427 137.133 681.56 133.733 683.827 130C686.227 126.267 688.627 122.467 691.027 118.6C689.293 119.667 687.227 121 684.827 122.6C682.427 124.067 680.627 125.333 679.427 126.4C678.76 126.4 677.76 126.2 676.427 125.8C675.227 125.267 674.027 124.667 672.827 124C671.76 123.2 670.96 122.267 670.427 121.2C669.893 120.133 670.027 118.933 670.827 117.6C673.76 112.533 677.027 107.6 680.627 102.8C684.36 98 688.16 93.4 692.027 89C686.427 89.4 681.827 88.9333 678.227 87.6C675.027 92 671.827 96.2667 668.627 100.4C665.56 104.4 662.96 107.8 660.827 110.6C660.16 111.4 659.427 111.867 658.627 112C657.96 112 657.293 111.8 656.627 111.4C655.96 111 655.493 110.533 655.227 110C654.96 109.333 655.027 108.667 655.427 108C658.627 103.733 661.56 99.8667 664.227 96.4C667.027 92.9333 669.827 89 672.627 84.6C670.36 82.7333 668.96 80.4667 668.427 77.8C668.027 75 668.627 71.9333 670.227 68.6C672.227 64.4667 674.76 61.6667 677.827 60.2C680.893 58.7333 683.56 58.4 685.827 59.2C688.227 60 689.693 61.8 690.227 64.6C690.893 67.4 689.827 70.8667 687.027 75C686.893 75.2667 686.76 75.4667 686.627 75.6C686.627 75.6 686.56 75.7333 686.427 76C688.56 75.6 690.893 75.0667 693.427 74.4C695.96 73.6 698.493 72.6667 701.027 71.6C703.56 70.4 706.027 69.2 708.427 68C710.827 66.6667 712.96 65.2667 714.827 63.8C715.627 63.2667 716.693 63.3333 718.027 64C719.36 64.6667 720.693 65.5333 722.027 66.6C723.36 67.6667 724.56 68.7333 725.627 69.8C726.693 70.8667 727.227 71.5333 727.227 71.8C727.227 71.9333 726.293 72.7333 724.427 74.2C722.693 75.6667 720.427 77.6 717.627 80C714.827 82.4 711.693 85.1333 708.227 88.2C704.893 91.2667 701.56 94.3333 698.227 97.4C694.893 100.467 691.827 103.533 689.027 106.6C686.227 109.533 684.093 112.133 682.627 114.4C684.493 112.933 686.56 111.267 688.827 109.4C691.227 107.533 693.56 105.8 695.827 104.2C698.227 102.467 700.427 101.067 702.427 100C704.56 98.8 706.227 98.0667 707.427 97.8C707.56 98.0667 708.027 98.6667 708.827 99.6C709.627 100.533 710.427 101.533 711.227 102.6C712.16 103.667 712.96 104.667 713.627 105.6C714.427 106.533 714.96 107.133 715.227 107.4C714.96 107.667 714.36 108.4 713.427 109.6C712.627 110.8 711.693 112.267 710.627 114C709.56 115.733 708.36 117.667 707.027 119.8C705.693 121.933 704.36 124 703.027 126C701.96 127.867 701.76 129.267 702.427 130.2C703.227 131 704.493 131.267 706.227 131C708.093 130.733 710.227 129.867 712.627 128.4C715.16 126.933 717.627 124.8 720.027 122C722.293 119.6 724.56 117 726.827 114.2C729.227 111.267 731.493 108.467 733.627 105.8ZM679.227 72.6C680.16 70.8667 680.693 69.6 680.827 68.8C680.96 67.8667 680.827 67.4 680.427 67.4C680.16 67.2667 679.76 67.6 679.227 68.4C678.693 69.0667 678.16 70.0667 677.627 71.4C677.093 73.1333 677.227 74.4 678.027 75.2C678.293 74.8 678.493 74.4 678.627 74C678.76 73.4667 678.96 73 679.227 72.6ZM806.175 105.8C806.708 105 807.375 104.6 808.175 104.6C809.108 104.467 809.842 104.6 810.375 105C811.042 105.267 811.442 105.733 811.575 106.4C811.842 107.067 811.708 107.8 811.175 108.6C810.642 109.4 809.775 110.6 808.575 112.2C807.375 113.667 805.975 115.333 804.375 117.2C802.908 119.067 801.308 121 799.575 123C797.975 124.867 796.442 126.6 794.975 128.2C790.175 133.133 785.642 136.533 781.375 138.4C777.242 140.267 773.575 141.133 770.375 141C767.308 140.733 764.842 139.733 762.975 138C761.108 136.133 760.108 134 759.975 131.6C757.175 134.933 754.375 137.6 751.575 139.6C748.908 141.467 746.375 142.8 743.975 143.6C741.575 144.4 739.375 144.733 737.375 144.6C735.375 144.6 733.708 144.333 732.375 143.8C730.375 143.133 728.508 141.667 726.775 139.4C725.042 137.133 724.242 133.867 724.375 129.6C724.375 125.333 725.708 120 728.375 113.6C730.908 107.067 735.575 99.2 742.375 90C748.242 81.8667 753.842 75.8 759.175 71.8C764.508 67.8 769.308 65.2667 773.575 64.2C777.975 63.1333 781.708 63.2 784.775 64.4C787.842 65.6 790.175 67.4667 791.775 70C793.375 72.4 794.108 75.2 793.975 78.4C793.842 81.4667 792.708 84.2667 790.575 86.8C790.708 85.0667 789.842 83.5333 787.975 82.2C786.108 80.8667 783.508 80.4667 780.175 81C776.842 81.4 772.908 83.0667 768.375 86C763.842 88.9333 758.975 93.8667 753.775 100.8C751.508 103.6 749.108 106.933 746.575 110.8C744.175 114.667 742.108 118.4 740.375 122C738.642 125.6 737.575 128.8 737.175 131.6C736.775 134.267 737.642 135.867 739.775 136.4C743.375 137.467 747.375 136 751.775 132C756.308 127.867 760.642 121.8 764.775 113.8C766.642 110.2 769.108 106.267 772.175 102C775.242 97.7333 778.975 93.0667 783.375 88C784.842 86.2667 786.508 85.8667 788.375 86.8C790.375 87.6 792.108 88.9333 793.575 90.8C795.175 92.6667 796.308 94.6 796.975 96.6C797.775 98.4667 797.708 99.5333 796.775 99.8C796.642 99.4 796.308 99.0667 795.775 98.8C795.375 98.4 794.775 98.3333 793.975 98.6C793.175 98.7333 792.175 99.3333 790.975 100.4C789.908 101.467 788.575 103.2 786.975 105.6C786.308 106.533 785.108 108.333 783.375 111C781.775 113.667 780.042 116.6 778.175 119.8C776.308 123.133 775.442 125.8 775.575 127.8C775.842 129.667 776.708 130.733 778.175 131C779.775 131.267 781.842 130.667 784.375 129.2C787.042 127.6 789.975 125 793.175 121.4C795.442 118.867 797.642 116.333 799.775 113.8C802.042 111.133 804.175 108.467 806.175 105.8Z" fill="white"/>
</svg>
